<?xml version="1.0" encoding="UTF-8"?>
<svg width="128px" height="26px" viewBox="0 0 128 26" version="1.1" xmlns="http://www.w3.org/2000/svg" xmlns:xlink="http://www.w3.org/1999/xlink">
    <!-- Generator: Sketch 43.1 (39012) - http://www.bohemiancoding.com/sketch -->
    <title>Logo</title>
    <desc>Created with Sketch.</desc>
    <defs>
        <polygon id="path-1" points="0.0904587859 25.7352941 28.0770658 25.7352941 28.0770658 0.261037645 0.0904587859 0.261037645 0.0904587859 25.7352941"></polygon>
    </defs>
    <g id="Page-1" stroke="none" stroke-width="1" fill="none" fill-rule="evenodd">
        <g id="Desktop-HD" transform="translate(-135.000000, -26.000000)">
            <g id="Header" transform="translate(0.000000, -1.000000)">
                <g id="Logo" transform="translate(135.000000, 26.571429)">
                    <path d="M52.4034863,8.59109477 L52.4124831,8.59109477 L52.4034863,8.59109477 Z" id="Fill-1" fill="#1899C8"></path>
                    <polygon id="Fill-2" fill="#1899C8" points="51.7435706 11.4763889 52.4126058 11.4763889 51.7456153 11.4739379"></polygon>
                    <g id="Group-47" transform="translate(0.000000, 0.147345)">
                        <path d="M34.1237367,13.9861928 L32.2413597,19.397549 C31.5150722,21.6949346 29.7332958,22.1418301 28.6978454,22.1291667 C25.7677495,22.0919935 27.1144077,18.8808007 27.1144077,18.8808007 L29.2004396,13.2872549 C30.1418326,10.5352124 32.0843246,10.2954248 32.5423438,10.3142157 C35.5644524,10.4310458 34.1237367,13.9861928 34.1237367,13.9861928 M40.0481329,11.3289216 C39.9610275,10.8803922 39.8248486,10.4727124 39.6473661,10.1017974 C38.5027272,7.72434641 35.6392895,6.93349673 33.0400307,6.94411765 C27.9417048,6.9629085 25.2487974,8.98823529 23.8751489,11.2345588 C22.7992128,12.9947712 21.8058837,15.9081699 21.1605674,18.4285948 C21.1597495,18.4306373 21.1597495,18.4322712 21.1597495,18.4339052 C21.1286696,18.8154412 21.057922,19.2096405 20.9479157,19.6152778 C20.357807,25.457598 27.8169764,25.7137255 27.8169764,25.7137255 C34.0771169,25.7545752 36.267839,23.3276961 37.3544077,21.3685458 C38.1907016,19.8583333 39.5827527,15.8060458 39.5827527,15.8060458 C40.1716345,13.9878268 40.2787783,12.5160131 40.0481329,11.3289216" id="Fill-3" fill="#1899C8"></path>
                        <g id="Group-7" transform="translate(38.031949, 0.000000)">
                            <mask id="mask-2" fill="white">
                                <use xlink:href="#path-1"></use>
                            </mask>
                            <g id="Clip-6"></g>
                            <path d="M24.6770914,8.50130719 L26.0662799,3.05645425 L18.5727591,4.8505719 L17.4391617,8.44370915 L14.3806569,8.44370915 L14.3716601,8.44370915 L12.3719157,8.45637255 C12.3719157,8.45637255 12.8851425,6.66102941 13.0875706,6.07197712 C13.6036601,4.57320261 14.4264588,1.91633987 16.8306505,2.99885621 L17.8423821,0.821160131 C17.8423821,0.821160131 12.9763374,-0.544035948 9.8078262,0.988235294 C8.04976869,1.83872549 6.63318083,2.99885621 5.04156422,8.44370915 L1.99328307,8.44370915 L1.61541725,10.1022059 C1.79289968,10.4727124 1.92907859,10.8803922 2.01618403,11.3289216 L4.3557623,11.3289216 L0.0904587859,25.6908497 L7.43307859,25.6908497 L11.6726185,11.3162582 L13.7140754,11.3264706 L14.3806569,11.3289216 L16.5292575,11.3289216 L14.266561,19.5956699 C13.0675323,24.3877451 16.2736665,25.5458333 18.1000179,25.6908497 C21.9498326,25.9927288 24.3748805,24.6610294 24.3748805,24.6610294 L24.574446,22.6941176 C24.5016537,22.5772876 24.4354045,22.4551471 24.3748805,22.3272876 C20.4044268,23.2958333 21.4296537,19.7688725 21.4296537,19.7688725 L23.8056281,11.3857026 L26.8117879,11.3387255 C26.8346888,11.2978758 26.8575898,11.2513072 26.8825355,11.2120915 C27.1131808,10.8330065 27.3851297,10.463317 27.6971553,10.1054739 L28.0770658,8.44370915 L24.6770914,8.50130719 Z" id="Fill-5" fill="#1899C8" mask="url(#mask-2)"></path>
                        </g>
                        <path d="M79.0534952,21.345915 C79.153278,21.165768 79.2604217,20.9484477 79.3724728,20.7070261 C76.9924089,22.0023693 74.8192716,23.5219771 72.9503898,25.3009804 C76.4358339,24.5428105 78.2392843,22.8132353 79.0534952,21.345915" id="Fill-8" fill="#F8B941"></path>
                        <path d="M79.7642837,18.3966095 C79.7663284,18.3966095 79.7691911,18.395384 79.7704179,18.3941585 L79.7642837,18.3941585 L79.7642837,18.3966095 Z" id="Fill-10" fill="#1899C8"></path>
                        <path d="M20.947793,19.6153595 C21.0577994,19.2097222 21.128547,18.8151144 21.1600358,18.4339869 C21.0537099,18.8518791 20.985007,19.2440359 20.947793,19.6153595" id="Fill-12" fill="#1899C8"></path>
                        <path d="M98.211292,14.8029412 C96.1408,15.138317 94.0494518,15.5492647 91.9789597,16.0517157 L90.8735796,19.2294118 C90.1485188,21.5267974 88.3659246,21.9736928 87.3292473,21.9610294 C84.4003783,21.9242647 85.7470364,18.7130719 85.7470364,18.7130719 L86.0970939,17.7739379 C83.8159949,18.569281 81.6183208,19.5047386 79.5690939,20.6031863 C80.005439,25.325 86.4500141,25.5459967 86.4500141,25.5459967 C92.7101546,25.5868464 94.9004677,23.1599673 95.9870364,21.201634 C96.0720971,21.0468137 96.1657457,20.8605392 96.2593942,20.6616013 C97.0944613,18.9009804 98.2161994,15.638317 98.2161994,15.638317 C98.3131195,15.3360294 98.3940907,15.0451797 98.4656562,14.760866 C98.3805955,14.7747549 98.2955348,14.7890523 98.211292,14.8029412" id="Fill-14" fill="#F8B941"></path>
                        <path d="M98.7422671,13.296201 C98.7463565,13.2561683 98.7496281,13.2169526 98.7533086,13.1765114 L98.7120051,13.2998775 C98.7234556,13.298652 98.7316345,13.297018 98.7422671,13.296201" id="Fill-16" fill="#1899C8"></path>
                        <path d="M15.2236166,11.4261029 L15.1291502,11.4261029 C15.3651118,11.5049428 15.5978019,11.5886846 15.8280383,11.6761029 C15.6243834,11.5886846 15.4227732,11.5049428 15.2236166,11.4261029" id="Fill-18" fill="#99D1E0"></path>
                        <g id="Group-22" fill="#1899C8">
                            <path d="M22.9838109,8.91650327 C22.9838109,8.91650327 23.2770249,6.85972222 23.2475808,6.10236928 C23.0594658,1.28251634 17.132616,0.472058824 14.6126927,0.344199346 C1.95091629,-0.293464052 1.37144026,7.44305556 1.6851016,8.95816993 C1.87198978,9.8744281 2.35618147,10.6971405 3.01785559,11.4263072 C4.12528051,12.6460784 5.73693546,13.6003268 7.30933163,14.2825163 C8.00331246,14.5488562 8.73287157,14.7780229 9.4787885,14.9683824 C14.5991974,16.2723039 14.4119003,18.0868464 13.9747374,19.2776144 C13.5383923,20.4683824 12.1483859,21.6995915 9.35324217,21.4324346 C8.42125495,21.3437908 7.82255847,20.9773693 7.44142109,20.4937092 C6.42641789,19.2028595 6.52415591,17.0664216 6.52415591,17.0664216 L6.48039872,17.0664216 C6.48162556,17.0643791 6.48162556,17.0627451 6.4828524,17.0615196 L4.96361917,17.0615196 L0.0227373802,17.0541667 C0.0206926518,17.0721405 -1.10922428,26.1934641 12.8194658,25.5578431 C21.7287565,24.5978758 21.7434786,18.3380719 21.469485,17.008415 C21.3819706,16.580719 21.228207,16.1730392 21.0245521,15.7866013 C20.0545329,13.952451 17.907977,12.5770425 15.8280792,11.6763072 C15.5978428,11.5884804 15.3651527,11.5051471 15.1291911,11.4263072 C14.6564498,11.2669935 14.1698045,11.1240196 13.6757981,10.9986111 C8.5541623,9.69428105 8.74064153,7.87973856 9.17821342,6.68897059 C9.6157853,5.49820261 11.0057917,4.26699346 13.8005265,4.53415033 C17.222584,4.86094771 16.1752741,8.90098039 16.1752741,8.90098039 L22.9838109,8.91650327 Z" id="Fill-20"></path>
                        </g>
                        <path d="M81.6954479,14.1673203 L81.07017,14.1673203 C80.5867962,15.4598039 80.1557674,16.8601307 79.8204319,18.1652778 C81.8721125,17.2212418 84.2366364,16.3082516 86.943039,15.5071895 L87.8320869,13.1191176 C88.7751157,10.3678922 90.7176077,10.1272876 91.1748089,10.1460784 C94.1960997,10.2629085 92.7562019,13.819281 92.7562019,13.819281 L92.6551923,14.1080882 C94.5576077,13.7326797 96.5896588,13.4177288 98.7521636,13.1779412 L98.7533904,13.1763072 C99.2428984,8.22941176 95.2139655,6.7620915 91.6737227,6.7755719 C86.573761,6.79477124 83.8800358,8.82009804 82.5067962,11.0668301 C82.2753329,11.4479575 82.0463233,11.8911765 81.823039,12.3642157 C81.8520741,12.9160948 81.8189495,13.511683 81.6954479,14.1673203" id="Fill-23" fill="#1899C8"></path>
                        <path d="M79.3298607,18.3939542 L73.6213879,18.3939542 L73.2795093,19.3747549 C72.5544486,21.671732 70.773899,22.1055556 69.7359949,22.1055556 C67.4266786,22.1059641 68.6036243,18.858415 68.6036243,18.858415 L70.6884294,13.2644608 C71.888276,10.5565359 73.123701,10.2906046 73.582947,10.2906046 C76.5936051,10.2897876 75.1627042,13.9638072 75.1627042,13.9638072 L75.0923655,14.1672386 L81.0699246,14.1672386 L81.6956115,14.1672386 C81.8191131,13.5116013 81.8522377,12.9160131 81.8232026,12.3645425 C81.609324,8.1872549 77.3787808,6.90784314 74.0806339,6.92091503 C69.8390492,6.9376634 67.2663719,8.34166667 65.7287361,10.1055556 C65.4171195,10.4629902 65.1451706,10.8330882 64.9145252,11.2117647 C64.8895796,11.2513889 64.8666786,11.2979575 64.8437776,11.3383987 C63.7948319,13.109232 62.830538,15.9409314 62.2011706,18.4058007 C61.7770939,20.0614379 61.9308575,21.3383987 62.4068703,22.3273693 C62.4673942,22.4552288 62.5336435,22.5769608 62.6064358,22.6941993 C64.2827042,25.4662582 68.6420652,25.6815359 68.846538,25.6901144 C69.6288511,24.802451 72.8411195,21.4670752 79.3298607,18.3939542" id="Fill-25" fill="#1899C8"></path>
                        <path d="M121.668907,13.5063725 C121.724115,13.5125 121.780141,13.5206699 121.834121,13.5280229 C122.011604,13.5312908 122.189495,13.5337418 122.366978,13.5374183 C122.151872,13.5272059 121.920409,13.5161765 121.668907,13.5063725" id="Fill-27" fill="#1899C8"></path>
                        <path d="M105.380396,12.7120098 C105.883399,11.7577614 106.880409,10.5482026 108.640511,10.8410948 C109.27724,10.9473039 109.619936,11.5612745 109.577406,12.6744281 C109.974492,12.6801471 110.371987,12.685866 110.776435,12.6952614 C112.60892,12.7185458 114.506019,12.7888072 116.477546,12.9158497 C116.899169,11.9938725 117.774313,10.6454248 119.297227,10.6315359 C120.098351,10.625 120.861853,10.9027778 120.375208,13.3598856 C120.805419,13.4068627 121.232358,13.4534314 121.669112,13.5065359 C121.920204,13.5159314 122.152077,13.5269608 122.366773,13.5375817 C122.916396,13.5482026 121.462185,13.4808007 122.011808,13.5494281 C122.011808,13.5494281 123.42676,13.5886438 122.366773,13.5375817 C122.189291,13.5339052 122.011808,13.5314542 121.834326,13.5281863 C123.493827,13.7316176 125.201176,13.9767157 126.953508,14.2606209 L127.518671,12.1405229 C127.518671,12.1405229 129.030952,7.19035948 122.725419,6.65849673 C120.847131,6.5004085 117.041891,6.75449346 115.588498,9.74632353 C115.588498,9.74632353 116.186786,6.61519608 110.435374,6.61519608 C109.178684,6.61519608 107.48115,6.55392157 105.845776,8.64542484 L104.873304,6.86846405 L100.98423,6.86846405 L99.4952588,10.9505719 L98.7534313,13.1764706 L98.7534313,13.1772876 C100.836601,12.9468954 103.043272,12.7859477 105.380396,12.7120098" id="Fill-29" fill="#1899C8"></path>
                        <path d="M109.577488,12.6844771 C109.972529,12.6848856 110.373296,12.6906046 110.776516,12.6955065 C110.372069,12.6861111 109.974165,12.6803922 109.577488,12.6746732 L109.577488,12.6844771 Z" id="Fill-31" fill="#1899C8"></path>
                        <path d="M121.834162,13.5280637 C122.318354,13.5742239 121.834162,13.5280637 121.834162,13.5280637 C121.780181,13.5207108 121.724156,13.5125408 121.668948,13.5064134 C121.274316,13.489665 122.316309,13.5415441 121.834162,13.5280637" id="Fill-33" fill="#1899C8"></path>
                        <path d="M100.861301,25.5325163 L102.041518,22.1338235 C100.038502,23.0852124 98.0939655,24.2089869 96.2749751,25.5325163 L100.861301,25.5325163 Z" id="Fill-35" fill="#1899C8"></path>
                        <path d="M104.884999,13.9536765 C102.804284,14.1513889 100.649549,14.4144608 98.4657789,14.760866 C98.3942134,15.0451797 98.3132422,15.3360294 98.216322,15.638317 C98.216322,15.638317 97.094584,18.9009804 96.259108,20.6616013 L95.1251016,24.0647876 C96.7338939,23.010049 99.2865329,21.5394608 102.722086,20.1779412 L104.884999,13.9536765 Z" id="Fill-37" fill="#F8B941"></path>
                        <path d="M115.550957,15.8972631 L116.159468,13.7591912 C116.159468,13.7591912 116.197909,13.6198938 116.276018,13.4082925 C114.270957,13.4144199 111.964912,13.4699755 109.471571,13.6096814 C109.4135,13.9168709 109.344797,14.2420343 109.245015,14.6011029 L108.863468,15.8972631 L108.202203,18.3703023 C110.341807,17.7979984 112.698152,17.3176062 115.262242,16.9936683 L115.550957,15.8972631 Z" id="Fill-39" fill="#F8B941"></path>
                        <path d="M106.406768,25.0727533 L113.134334,25.0629493 L114.975407,18.0817402 C112.676314,18.5102533 110.244723,19.0899101 107.798819,19.8734069 L106.406768,25.0727533 Z" id="Fill-41" fill="#1899C8"></path>
                        <path d="M126.29486,16.6739788 L126.893148,14.4791258 C125.223013,14.3447304 122.926783,14.1923611 120.203205,14.0967729 C120.199116,14.1102533 120.196662,14.1216912 120.192981,14.1347631 L119.530898,16.6204657 C121.666822,16.5150735 123.922157,16.522835 126.29486,16.6739788" id="Fill-43" fill="#F8B941"></path>
                        <path d="M117.284805,25.0577206 L124.011553,25.0499592 L126.230492,16.9090278 C124.501879,16.9498775 122.101776,17.0765114 119.320128,17.4147467 L117.284805,25.0577206 Z" id="Fill-45" fill="#1899C8"></path>
                    </g>
                </g>
            </g>
        </g>
    </g>
</svg>