<?xml version="1.0" encoding="UTF-8"?>
<svg width="170px" height="41px" viewBox="0 0 170 41" version="1.1" xmlns="http://www.w3.org/2000/svg" xmlns:xlink="http://www.w3.org/1999/xlink">
    <!-- Generator: Sketch 43.1 (39012) - http://www.bohemiancoding.com/sketch -->
    <title>logo2Logo</title>
    <desc>Created with Sketch.</desc>
    <defs>
        <filter x="-0.6%" y="-0.9%" width="101.2%" height="102.6%" filterUnits="objectBoundingBox" id="filter-1">
            <feOffset dx="0" dy="2" in="SourceAlpha" result="shadowOffsetOuter1"></feOffset>
            <feGaussianBlur stdDeviation="2" in="shadowOffsetOuter1" result="shadowBlurOuter1"></feGaussianBlur>
            <feColorMatrix values="0 0 0 0 0   0 0 0 0 0   0 0 0 0 0  0 0 0 0.5 0" type="matrix" in="shadowBlurOuter1" result="shadowMatrixOuter1"></feColorMatrix>
            <feMerge>
                <feMergeNode in="shadowMatrixOuter1"></feMergeNode>
                <feMergeNode in="SourceGraphic"></feMergeNode>
            </feMerge>
        </filter>
        <polygon id="path-2" points="35.5764425 0.153043478 0.0826725664 0.153043478 0.0826725664 32.5216717 35.5764425 32.5216717 35.5764425 0.153043478"></polygon>
        <polygon id="path-4" points="0 0.21110825 0 32.3365347 29.4861008 32.3365347 29.4861008 0.21110825 1.29528578e-20 0.21110825"></polygon>
    </defs>
    <g id="Page-1" stroke="none" stroke-width="1" fill="none" fill-rule="evenodd">
        <g id="Desktop-HD" transform="translate(-1094.000000, -877.000000)">
            <g id="Introduction" filter="url(#filter-1)" transform="translate(135.000000, 423.000000)">
                <g id="Logo" transform="translate(963.000000, 456.000000)">
                    <path d="M66.460285,10.8755565 L66.472285,10.8755565 L66.460285,10.8755565 Z" id="Fill-1" fill="#1899C8"></path>
                    <polygon id="Fill-2" fill="#1899C8" points="65.6233327 14.5421522 66.4720407 14.5421522 65.6257221 14.5386522"></polygon>
                    <g id="Group-47" transform="translate(0.000000, 0.325361)">
                        <path d="M43.2770814,17.5926826 L40.8896124,24.4686391 C39.9682673,27.3879435 37.708869,27.9556391 36.3956655,27.9398565 C32.6801788,27.8920304 34.3876301,23.811987 34.3876301,23.811987 L37.0331522,16.7045522 C38.2268867,13.2075087 40.6908159,12.9033348 41.2714354,12.9267696 C45.1044796,13.0755087 43.2770814,17.5926826 43.2770814,17.5926826 M50.7907274,14.2166391 C50.6798602,13.6460739 50.5078248,13.1281174 50.2827451,12.6570304 C48.8304796,9.63585652 45.1990991,8.63103043 41.9027097,8.6449 C35.4365681,8.66833478 32.0211876,11.2418565 30.2793292,14.0965957 C28.914515,16.3329435 27.6548336,20.0346826 26.8367097,23.2375957 C26.835754,23.2404652 26.835754,23.2423783 26.835754,23.2442913 C26.7960903,23.7287696 26.7067274,24.229987 26.5667097,24.7455522 C25.8183558,32.1691174 35.2783912,32.4943348 35.2783912,32.4943348 C43.2178248,32.5464652 45.9961965,29.4626391 47.3743912,26.9732913 C48.4352761,25.0540304 50.2005504,19.9050739 50.2005504,19.9050739 C50.9474708,17.5945957 51.0831876,15.7245957 50.7907274,14.2166391" id="Fill-3" fill="#FFFFFF"></path>
                        <g id="Group-7" transform="translate(48.265487, 0.000000)">
                            <mask id="mask-3" fill="white">
                                <use xlink:href="#path-2"></use>
                            </mask>
                            <g id="Clip-6"></g>
                            <path d="M31.2645664,10.6232739 L33.0260177,3.70475217 L23.5229735,5.98462174 L22.0855221,10.5501 L18.2061239,10.5501 L18.1946549,10.5501 L15.6585664,10.5658826 C15.6585664,10.5658826 16.3094336,8.28457826 16.566531,7.53657826 C17.2207434,5.63166522 18.2644248,2.2561 21.3132743,3.63157826 L22.5963717,0.86436087 C22.5963717,0.86436087 16.4250796,-0.869813043 12.4066195,1.0767087 C10.1773274,2.15757826 8.38051327,3.63157826 6.3619646,10.5501 L2.49642478,10.5501 L2.01711504,12.6573174 C2.24219469,13.1279261 2.41423009,13.6463609 2.52509735,14.2164478 L5.49223009,14.2164478 L0.0826725664,32.4649696 L9.39504425,32.4649696 L14.7716283,14.200187 L17.3607611,14.2131 L18.2061239,14.2164478 L20.9309735,14.2164478 L18.0618053,24.7204913 C16.5412035,30.8097087 20.6069735,32.2813174 22.9232389,32.4649696 C27.806177,32.849013 30.8813097,31.1564478 30.8813097,31.1564478 L31.1345841,28.6575348 C31.0418761,28.5087957 30.9577699,28.3538391 30.8813097,28.1917087 C25.8454513,29.4217957 27.1457522,24.9404913 27.1457522,24.9404913 L30.1592389,14.2886652 L33.9722124,14.2284043 C34.000885,14.1767522 34.0300354,14.1174478 34.0615752,14.0677087 C34.3540354,13.5861 34.6990619,13.1159696 35.0942655,12.6616217 L35.5764425,10.5501 L31.2645664,10.6232739 Z" id="Fill-5" fill="#FFFFFF" mask="url(#mask-3)"></path>
                        </g>
                        <path d="M100.258742,26.9443565 C100.384901,26.7152696 100.521096,26.439313 100.663025,26.1327478 C97.6447593,27.7784435 94.8883699,29.7091826 92.5185823,31.9699217 C96.9389363,31.0062261 99.2260513,28.8086174 100.258742,26.9443565" id="Fill-8" fill="#F8B941"></path>
                        <path d="M101.160159,23.1969522 C101.162659,23.1969522 101.166659,23.1954522 101.168159,23.1934522 L101.160159,23.1934522 L101.160159,23.1969522 Z" id="Fill-10" fill="#1899C8"></path>
                        <path d="M26.5668053,24.7454087 C26.7128053,24.2298435 26.8068053,23.7286261 26.8483053,23.2441478 C26.7073053,23.7750174 26.6163053,24.2733652 26.5668053,24.7454087" id="Fill-12" fill="#1899C8"></path>
                        <path d="M124.555396,18.6305087 C121.929467,19.0566391 119.277255,19.5784217 116.651326,20.2173783 L115.249237,24.2548565 C114.329804,27.1741609 112.06945,27.7418565 110.754335,27.7260739 C107.039804,27.6792043 108.747733,23.5991609 108.747733,23.5991609 L109.19168,22.4054217 C106.298618,23.4164652 103.511644,24.6049435 100.912476,26.000987 C101.465857,32.0002913 109.63945,32.2810304 109.63945,32.2810304 C117.578883,32.3331609 120.356299,29.2493348 121.734494,26.7609435 C121.842494,26.5643783 121.961007,26.3276391 122.079998,26.0746391 C123.138972,23.837813 124.561609,19.6917696 124.561609,19.6917696 C124.684423,19.3077261 124.787166,18.9385087 124.877963,18.5769435 C124.769963,18.5946391 124.661963,18.612813 124.555396,18.6305087" id="Fill-14" fill="#F8B941"></path>
                        <path d="M125.230589,16.7228478 C125.235589,16.6698478 125.240089,16.6173478 125.245589,16.5638478 L125.190589,16.7278478 C125.205589,16.7263478 125.216589,16.7243478 125.230589,16.7228478" id="Fill-16" fill="#1899C8"></path>
                        <path d="M19.3071982,14.3396957 L19.1872513,14.3396957 C19.4864018,14.4446957 19.7817292,14.5556957 20.0737115,14.6721957 C19.8156584,14.5556957 19.5599947,14.4446957 19.3071982,14.3396957" id="Fill-18" fill="#99D1E0"></path>
                        <g id="Group-22">
                            <mask id="mask-5" fill="white">
                                <use xlink:href="#path-4"></use>
                            </mask>
                            <g id="Clip-21"></g>
                            <path d="M29.1489611,11.1508435 C29.1489611,11.1508435 29.5207487,8.53762609 29.4834743,7.57488696 C29.2450142,1.45075652 21.7285009,0.420582609 18.5324655,0.258452174 C2.47391681,-0.551721739 1.73942124,9.27845217 2.13701416,11.2034522 C2.37404071,12.3680174 2.9881115,13.4134957 3.82726195,14.339887 C5.2322177,15.8894522 7.27561593,17.1023217 9.2702708,17.9694087 C10.1500407,18.3075391 11.0752088,18.5988 12.0209257,18.8408 C18.5152619,20.4974957 18.2777575,22.8031913 17.7234212,24.3164087 C17.1700407,25.8291478 15.4071558,27.3940174 11.8617929,27.0544522 C10.6800053,26.9415826 9.92113805,26.4762348 9.43752743,25.8616696 C8.1501292,24.2212348 8.27437699,21.5061478 8.27437699,21.5061478 L8.21894336,21.5061478 C8.22037699,21.5037565 8.22037699,21.5018435 8.22181062,21.5004087 L6.29501416,21.5004087 L0.0286247788,21.4913217 C0.0262353982,21.5138 -1.40691504,33.1039739 16.2582531,32.2961913 C27.5576336,31.0766261 27.5757929,23.1221913 27.228377,21.4329739 C27.1175097,20.8891913 26.9225363,20.371713 26.6640053,19.8805391 C25.4339522,17.5499739 22.7119699,15.8019304 20.0736159,14.6574522 C19.7816336,14.5460174 19.4863062,14.4398435 19.1871558,14.339887 C18.5878991,14.1375826 17.9709611,13.9558435 17.3439876,13.7965826 C10.8486956,12.1389304 11.0852442,9.83323478 11.6400584,8.32049565 C12.1953504,6.80727826 13.9577575,5.24288696 17.5021646,5.58245217 C21.8422354,5.99758261 20.5137398,11.1312348 20.5137398,11.1312348 L29.1489611,11.1508435 Z" id="Fill-20" fill="#FFFFFF" mask="url(#mask-5)"></path>
                        </g>
                        <path d="M103.609322,17.8228217 L102.816048,17.8228217 C102.203411,19.4651696 101.656242,21.2447783 101.230933,22.9029087 C103.833446,21.7034304 106.832119,20.5431696 110.264225,19.5254304 L111.392012,16.4908652 C112.588136,12.9947783 115.051588,12.6896478 115.631729,12.7135609 C119.462862,12.8618217 117.636897,17.3804304 117.636897,17.3804304 L117.508827,17.7477348 C119.921623,17.2704304 122.498809,16.8701261 125.24134,16.5654739 L125.242773,16.5635609 C125.863535,10.2777783 120.754083,8.41351739 116.263959,8.43073478 C109.796384,8.45512609 106.380048,11.0281696 104.638189,13.8829087 C104.344296,14.367387 104.054225,14.9303 103.771322,15.5319522 C103.808119,16.2326043 103.766065,16.9896913 103.609322,17.8228217" id="Fill-23" fill="#FFFFFF"></path>
                        <path d="M100.609216,23.1934522 L93.3693929,23.1934522 L92.9359593,24.4393217 C92.0165257,27.3581478 89.7585611,27.9095826 88.4420124,27.9095826 C85.5131097,27.9100609 87.0059947,23.7836261 87.0059947,23.7836261 L89.6500832,16.675713 C91.1716407,13.2346261 92.7381186,12.8964957 93.3206496,12.8964957 C97.1388796,12.8960174 95.3243841,17.5643217 95.3243841,17.5643217 L95.2350212,17.8230609 L102.816048,17.8230609 L103.609322,17.8230609 C103.766065,16.9894522 103.808119,16.2328435 103.771322,15.531713 C103.499888,10.2244522 98.1347735,8.59884348 93.9519239,8.61510435 C88.5724726,8.63614783 85.3100124,10.4205391 83.3598,12.6616696 C82.9645965,13.1160174 82.6195699,13.5861478 82.3271097,14.0677565 C82.2955699,14.1174957 82.2664195,14.1768 82.2377469,14.2284522 C80.9068619,16.4786696 79.6844549,20.0761478 78.8859239,23.2087565 C78.3478354,25.3121478 78.5432867,26.934887 79.1468442,28.1917565 C79.2233044,28.353887 79.3074106,28.5088435 79.3996407,28.6575826 C81.5261894,32.1794957 87.0547381,32.4530609 87.3142248,32.4645391 C88.3062956,31.3363217 92.3801894,27.0984522 100.609216,23.1934522" id="Fill-25" fill="#FFFFFF"></path>
                        <path d="M154.305239,16.9829957 C154.375009,16.9909957 154.446212,17.0019957 154.515027,17.0119957 C154.740106,17.0159957 154.965186,17.0194957 155.190265,17.0244957 C154.917876,17.0104957 154.623982,16.9959957 154.305239,16.9829957" id="Fill-27" fill="#1899C8"></path>
                        <path d="M133.647515,15.9736261 C134.28548,14.7612348 135.54994,13.2241043 137.782099,13.5961913 C138.58971,13.7310609 139.024577,14.5111043 138.970577,15.9262783 C139.473781,15.9334522 139.97794,15.9406261 140.491179,15.9525826 C142.81509,15.9822348 145.220719,16.0711913 147.721444,16.2328435 C148.256188,15.0611043 149.365816,13.3474957 151.297391,13.3298 C152.313356,13.3216696 153.281533,13.6746261 152.664595,16.7971913 C153.210329,16.8564957 153.751763,16.9158 154.305143,16.9827565 C154.623887,16.9951913 154.917781,17.0095391 155.190648,17.0224522 C155.887391,17.0363217 154.042789,16.950713 154.740011,17.0377565 C154.740011,17.0377565 156.534435,17.0879739 155.190648,17.0224522 C154.96509,17.0181478 154.740011,17.0148 154.514931,17.0104957 C156.619975,17.2692348 158.784754,17.5810609 161.007356,17.9416696 L161.72417,15.2476261 C161.72417,15.2476261 163.642365,8.95753913 155.645108,8.28127826 C153.262896,8.08088696 148.436825,8.40371304 146.593657,12.2049304 C146.593657,12.2049304 147.352524,8.22675652 140.058701,8.22675652 C138.464506,8.22675652 136.311674,8.1488 134.237692,10.8064957 L133.004294,8.54862609 L128.072135,8.54862609 L126.184046,13.7353652 L125.243108,16.5638 L125.243108,16.5647565 C127.884807,16.2720609 130.68325,16.0678435 133.647515,15.9736261" id="Fill-29" fill="#FFFFFF"></path>
                        <path d="M138.970434,15.9391826 C139.471248,15.9396826 139.979708,15.9476826 140.491035,15.9536826 C139.978274,15.9411826 139.473637,15.9336826 138.970434,15.9261826 L138.970434,15.9391826 Z" id="Fill-31" fill="#1899C8"></path>
                        <path d="M154.514835,17.0119947 C155.128428,17.0734947 154.514835,17.0119947 154.514835,17.0119947 C154.446499,17.0024947 154.375296,16.9914947 154.305048,16.9829947 C153.804712,16.9609947 155.126039,17.0299947 154.514835,17.0119947" id="Fill-33" fill="#1899C8"></path>
                        <path d="M127.916251,32.2641 L129.412959,27.9458826 C126.873048,29.1539696 124.406251,30.5825348 122.099543,32.2641 L127.916251,32.2641 Z" id="Fill-35" fill="#FFFFFF"></path>
                        <path d="M133.019251,17.5513609 C130.380419,17.8024478 127.647446,18.1367522 124.878154,18.5772304 C124.787358,18.9383174 124.684614,19.3075348 124.5618,19.6920565 C124.5618,19.6920565 123.139163,23.8376217 122.079712,26.0744478 L120.641304,30.3988826 C122.681835,29.0587957 125.919446,27.1902304 130.276242,25.4603609 L133.019251,17.5513609 Z" id="Fill-37" fill="#F8B941"></path>
                        <path d="M146.546251,20.0210043 L147.318021,17.3040043 C147.318021,17.3040043 147.366765,17.1270478 147.465685,16.8582652 C144.922906,16.8663957 141.998304,16.9367 138.836198,17.1141348 C138.762605,17.5043957 138.675154,17.917613 138.548517,18.3738739 L138.064906,20.0210043 L137.226234,23.1631783 C139.940092,22.4357435 142.928251,21.8254826 146.180198,21.4141783 L146.546251,20.0210043 Z" id="Fill-39" fill="#F8B941"></path>
                        <path d="M134.949202,31.6798565 L143.48168,31.6674217 L145.816104,22.7966391 C142.900582,23.3409 139.81637,24.0774217 136.714476,25.0731609 L134.949202,31.6798565 Z" id="Fill-41" fill="#FFFFFF"></path>
                        <path d="M160.172028,21.0079435 L160.930896,18.2192043 C158.812471,18.0484652 155.900772,17.8542913 152.446205,17.7332913 C152.440949,17.7505087 152.438081,17.7648565 152.433303,17.7811174 L151.593674,20.9400304 C154.302276,20.8061174 157.162842,20.8161609 160.172028,21.0079435" id="Fill-43" fill="#F8B941"></path>
                        <path d="M148.74515,31.6607739 L157.276195,31.6507304 L160.090407,21.3064261 C157.898389,21.3585565 154.854319,21.5197304 151.326159,21.9492087 L148.74515,31.6607739 Z" id="Fill-45" fill="#FFFFFF"></path>
                    </g>
                </g>
            </g>
        </g>
    </g>
</svg>